<?xml version="1.0" encoding="utf-8"?>
<!-- Generator: Adobe Illustrator 27.2.0, SVG Export Plug-In . SVG Version: 6.00 Build 0)  -->
<svg version="1.1" id="Layer_1" xmlns="http://www.w3.org/2000/svg" xmlns:xlink="http://www.w3.org/1999/xlink" x="0px" y="0px"
	 viewBox="0 0 610.8 99.2" style="enable-background:new 0 0 610.8 99.2;" xml:space="preserve">
<style type="text/css">
	.st0{fill:#1D1D1B;}
	.st1{fill:#14261F;}
</style>
<path class="st0" d="M600.6,91c0,0.7,0.2,1.3,0.6,1.8c0.4,0.5,0.9,0.9,1.6,1.2c0.7,0.3,1.5,0.4,2.5,0.4c1.6,0,2.8-0.4,3.6-1.2
	c0.8-0.8,1.2-1.8,1.2-2.9c0-0.5-0.1-0.9-0.2-1.3s-0.4-0.7-0.8-1c-0.2-0.2-0.5-0.3-0.7-0.4c-0.2-0.1-0.9-0.3-1.8-0.6l-0.7-0.2l-1-0.3
	c-0.7-0.2-1.1-0.4-1.4-0.6c-0.3-0.2-0.4-0.5-0.4-0.9c0-0.5,0.2-0.9,0.7-1.2c0.4-0.3,1.1-0.5,1.9-0.5c0.7,0,1.2,0.1,1.6,0.3
	c0.4,0.2,0.6,0.6,0.6,1v0h2v0c0-0.8-0.3-1.4-1-2.1c-0.6-0.6-1.7-0.9-3.2-0.9c-1.5,0-2.7,0.4-3.5,1.1c-0.8,0.7-1.2,1.6-1.2,2.5
	c0,1.4,0.8,2.3,2.4,2.9l1.4,0.4l0.7,0.2l1,0.3c1,0.3,1.5,0.8,1.5,1.6c0,0.6-0.3,1-0.8,1.4c-0.5,0.4-1.2,0.6-2,0.6
	c-1,0-1.6-0.2-2-0.5c-0.4-0.3-0.6-0.8-0.6-1.3v0L600.6,91L600.6,91z M598.1,76.5h-2v17.6h2V76.5z M589.5,88.1c0-1.7,0.4-2.9,1.1-3.6
	c0.7-0.7,1.5-1,2.2-1c0.5,0,1,0.1,1.5,0.4v-2.1c-0.3-0.1-0.7-0.2-1.1-0.2c-0.5,0-0.9,0.1-1.4,0.3c-0.5,0.2-0.9,0.4-1.3,0.8
	c-0.4,0.3-0.8,0.8-1.1,1.4V82h-2v12.2h2V88.1z M584.2,77.2h-2v2h2V77.2z M582.2,94.1h2V82h-2V94.1z M576,91.2
	c-0.6,0.9-1.5,1.4-2.5,1.4c-0.6,0-1.2-0.2-1.8-0.5c-0.6-0.4-1-0.9-1.2-1.6c-0.3-0.7-0.4-1.5-0.4-2.4c0-1.5,0.3-2.6,1-3.4
	c0.7-0.8,1.5-1.2,2.5-1.2c0.9,0,1.7,0.4,2.4,1.2c0.7,0.8,1,1.9,1,3.2C577,89.1,576.6,90.3,576,91.2 M577,93c0,1.5-0.2,2.5-0.5,3.1
	c-0.3,0.6-0.7,1-1.3,1.2c-0.5,0.3-1.1,0.4-1.9,0.4c-0.9,0-1.6-0.2-2.2-0.5c-0.6-0.3-0.9-0.7-0.9-1.3v-0.2h-2v0.2
	c0,0.6,0.2,1.1,0.6,1.6c0.4,0.5,1,0.9,1.8,1.2c0.8,0.3,1.7,0.4,2.7,0.4c1.1,0,2-0.2,2.8-0.6c0.8-0.4,1.5-1,2-1.8
	c0.5-0.8,0.8-2.5,0.8-5V82h-2v2c-0.6-0.9-1.2-1.5-1.8-1.8c-0.6-0.3-1.3-0.5-2-0.5c-1,0-1.9,0.2-2.7,0.7c-0.8,0.5-1.4,1.2-1.8,2.2
	c-0.4,1-0.6,2.1-0.6,3.4c0,1.9,0.5,3.4,1.4,4.5c0.9,1.1,2.1,1.7,3.6,1.7c0.9,0,1.7-0.2,2.4-0.6c0.7-0.4,1.2-1.1,1.6-1.9V93z
	 M554.9,76.5h-2v17.6h2V76.5z M547.7,89.2c0,0.7-0.2,1.4-0.5,1.9c-0.3,0.6-0.7,1-1.3,1.3c-0.5,0.3-1.1,0.5-1.7,0.5
	c-0.3,0-0.7-0.1-1-0.2c-0.3-0.2-0.6-0.4-0.8-0.6s-0.3-0.6-0.3-0.9c0-0.6,0.3-1.2,0.9-1.6c0.6-0.5,1.9-0.9,3.9-1.4l0.6-0.1V89.2z
	 M550.1,94.1c-0.2-0.8-0.4-1.4-0.4-2c0-0.6,0-1.1,0-1.6v-4.7c0-1.3-0.2-2.2-0.5-2.6c-0.3-0.5-0.9-0.8-1.6-1.1
	c-0.7-0.3-1.5-0.4-2.4-0.4c-0.9,0-1.7,0.1-2.5,0.4c-0.8,0.3-1.4,0.7-1.8,1.3c-0.5,0.6-0.7,1.1-0.7,1.7v0.2h2.2V85
	c0-0.5,0.2-0.9,0.7-1.3c0.5-0.4,1.1-0.6,2-0.6c0.7,0,1.3,0.2,1.8,0.5c0.5,0.3,0.8,0.8,0.8,1.6v1.4l-1.1,0.2c-2.4,0.5-4.1,1-5.1,1.7
	c-1,0.6-1.5,1.5-1.5,2.7c0,1,0.3,1.9,1,2.4c0.7,0.6,1.5,0.9,2.5,0.9c0.6,0,1.2-0.1,1.8-0.4c0.6-0.2,1.4-0.8,2.3-1.7
	c0,0.5,0.1,1,0.3,1.7H550.1z M529.5,88.2c0-1.2,0.2-2.1,0.5-2.7c0.3-0.6,0.8-1.1,1.3-1.5c0.5-0.3,1.1-0.5,1.7-0.5
	c0.5,0,1,0.1,1.4,0.4c0.4,0.3,0.7,0.6,0.9,1.1c0.1,0.5,0.2,1.2,0.2,2.3v6.9h2v-7.8c0-1.3-0.2-2.3-0.5-2.9c-0.3-0.6-0.8-1.1-1.4-1.4
	c-0.6-0.3-1.3-0.5-2.1-0.5c-0.5,0-1,0.1-1.5,0.2c-0.4,0.2-0.9,0.4-1.3,0.7c-0.4,0.3-0.8,0.8-1.3,1.5V82h-2v12.2h2V88.2z M516.4,91.5
	c-0.7-0.9-1-2-1-3.4c0-1.4,0.3-2.6,1-3.4c0.7-0.9,1.5-1.3,2.6-1.3c1.1,0,2,0.4,2.6,1.3c0.7,0.9,1,2,1,3.4c0,1.4-0.3,2.6-1,3.4
	c-0.7,0.9-1.5,1.3-2.6,1.3C518,92.8,517.1,92.4,516.4,91.5 M523.1,92.9c1.1-1.1,1.7-2.7,1.7-4.8c0-2.1-0.6-3.7-1.7-4.8
	c-1.1-1.1-2.5-1.6-4.1-1.6c-1.6,0-3,0.5-4.1,1.6c-1.1,1.1-1.7,2.7-1.7,4.8c0,2.1,0.6,3.7,1.7,4.8c1.1,1.1,2.5,1.6,4.1,1.6
	C520.7,94.5,522,93.9,523.1,92.9 M510.7,77.2h-2v2h2V77.2z M508.6,94.1h2V82h-2V94.1z M496.5,91c0,0.7,0.2,1.3,0.6,1.8
	c0.4,0.5,0.9,0.9,1.6,1.2c0.7,0.3,1.5,0.4,2.5,0.4c1.6,0,2.8-0.4,3.6-1.2c0.8-0.8,1.2-1.8,1.2-2.9c0-0.5-0.1-0.9-0.2-1.3
	c-0.2-0.4-0.4-0.7-0.8-1c-0.2-0.2-0.5-0.3-0.7-0.4c-0.2-0.1-0.9-0.3-1.8-0.6l-0.7-0.2l-1-0.3c-0.7-0.2-1.1-0.4-1.4-0.6
	s-0.4-0.5-0.4-0.9c0-0.5,0.2-0.9,0.7-1.2c0.4-0.3,1.1-0.5,1.9-0.5c0.7,0,1.2,0.1,1.6,0.3c0.4,0.2,0.6,0.6,0.6,1v0h2v0
	c0-0.8-0.3-1.4-1-2.1c-0.6-0.6-1.7-0.9-3.2-0.9c-1.5,0-2.7,0.4-3.5,1.1c-0.8,0.7-1.2,1.6-1.2,2.5c0,1.4,0.8,2.3,2.4,2.9l1.4,0.4
	l0.7,0.2l1,0.3c1,0.3,1.5,0.8,1.5,1.6c0,0.6-0.3,1-0.8,1.4c-0.5,0.4-1.2,0.6-2,0.6c-1,0-1.6-0.2-2-0.5c-0.4-0.3-0.6-0.8-0.6-1.3v0
	L496.5,91L496.5,91z M485.1,91c0,0.7,0.2,1.3,0.6,1.8c0.4,0.5,0.9,0.9,1.6,1.2c0.7,0.3,1.5,0.4,2.5,0.4c1.6,0,2.8-0.4,3.6-1.2
	c0.8-0.8,1.2-1.8,1.2-2.9c0-0.5-0.1-0.9-0.2-1.3c-0.2-0.4-0.4-0.7-0.8-1c-0.2-0.2-0.5-0.3-0.7-0.4c-0.2-0.1-0.9-0.3-1.8-0.6
	l-0.7-0.2l-1-0.3c-0.7-0.2-1.1-0.4-1.4-0.6s-0.4-0.5-0.4-0.9c0-0.5,0.2-0.9,0.7-1.2c0.4-0.3,1.1-0.5,1.9-0.5c0.7,0,1.2,0.1,1.6,0.3
	c0.4,0.2,0.6,0.6,0.6,1v0h2v0c0-0.8-0.3-1.4-1-2.1c-0.6-0.6-1.7-0.9-3.2-0.9c-1.5,0-2.7,0.4-3.5,1.1c-0.8,0.7-1.2,1.6-1.2,2.5
	c0,1.4,0.8,2.3,2.4,2.9l1.4,0.4l0.7,0.2l1,0.3c1,0.3,1.5,0.8,1.5,1.6c0,0.6-0.3,1-0.8,1.4c-0.5,0.4-1.2,0.6-2,0.6
	c-1,0-1.6-0.2-2-0.5s-0.6-0.8-0.6-1.3v0L485.1,91L485.1,91z M475.8,84.2c0.6-0.6,1.3-0.9,2.1-0.9c0.6,0,1.2,0.1,1.7,0.4
	c0.5,0.3,0.9,0.7,1.1,1.2c0.3,0.5,0.4,1.1,0.4,1.7v0.2h-6.6C474.7,85.7,475.2,84.8,475.8,84.2 M480.9,91.1c0,0.4-0.2,0.8-0.6,1.2
	c-0.4,0.3-1.1,0.5-2,0.5c-1.2,0-2.2-0.4-2.9-1.3c-0.7-0.8-1.1-1.9-1.1-3.2h8.7v-0.7c0-1.5-0.2-2.7-0.7-3.5c-0.4-0.8-1-1.5-1.8-1.9
	c-0.8-0.4-1.6-0.6-2.5-0.6c-1.7,0-3.1,0.6-4.1,1.9c-1.1,1.2-1.6,2.8-1.6,4.7c0,1.8,0.5,3.4,1.5,4.6c1,1.2,2.4,1.8,4.3,1.8
	c0.9,0,1.7-0.1,2.4-0.4c0.7-0.3,1.3-0.7,1.7-1.3c0.4-0.6,0.6-1.1,0.6-1.7V91h-2V91.1z M467.4,83.7h3.6V82h-3.6v-1
	c0-1.2,0.2-2,0.7-2.3c0.5-0.3,1-0.5,1.7-0.5c0.3,0,0.8,0,1.4,0.1v-1.7c-0.7-0.1-1.3-0.2-1.7-0.2c-1.2,0-2.2,0.4-2.9,1.1
	c-0.7,0.7-1.1,2-1.1,3.8V82h-1.8v1.7h1.8v10.5h2V83.7z M453.2,91.5c-0.7-0.9-1-2-1-3.4c0-1.4,0.3-2.6,1-3.4c0.7-0.9,1.5-1.3,2.6-1.3
	c1.1,0,2,0.4,2.6,1.3c0.7,0.9,1,2,1,3.4c0,1.4-0.3,2.6-1,3.4c-0.7,0.9-1.5,1.3-2.6,1.3C454.8,92.8,453.9,92.4,453.2,91.5 M460,92.9
	c1.1-1.1,1.7-2.7,1.7-4.8c0-2.1-0.6-3.7-1.7-4.8c-1.1-1.1-2.5-1.6-4.1-1.6c-1.6,0-3,0.5-4.1,1.6c-1.1,1.1-1.7,2.7-1.7,4.8
	c0,2.1,0.6,3.7,1.7,4.8c1.1,1.1,2.5,1.6,4.1,1.6C457.5,94.5,458.8,93.9,460,92.9 M444.1,88.1c0-1.7,0.4-2.9,1.1-3.6
	c0.7-0.7,1.5-1,2.2-1c0.5,0,1,0.1,1.5,0.4v-2.1c-0.3-0.1-0.7-0.2-1.1-0.2c-0.5,0-0.9,0.1-1.4,0.3c-0.5,0.2-0.9,0.4-1.3,0.8
	c-0.4,0.3-0.8,0.8-1.1,1.4V82h-2v12.2h2V88.1z M430.9,85.5c0.3-0.8,0.7-1.3,1.2-1.7c0.6-0.4,1.2-0.6,1.8-0.6c0.9,0,1.7,0.4,2.4,1.1
	c0.7,0.7,1,2,1,3.8c0,1.6-0.3,2.7-1,3.5c-0.6,0.8-1.5,1.2-2.5,1.2c-1.1,0-1.9-0.4-2.5-1.3c-0.6-0.9-0.9-2-0.9-3.4
	C430.5,87.2,430.6,86.3,430.9,85.5 M430.5,92c0.4,0.7,0.8,1.3,1.2,1.6c0.4,0.3,0.8,0.5,1.2,0.7c0.5,0.2,1,0.2,1.5,0.2
	c1.6,0,2.8-0.6,3.7-1.8c0.9-1.2,1.3-2.8,1.3-4.6c0-1.2-0.2-2.4-0.6-3.4c-0.4-1-1-1.8-1.8-2.3c-0.8-0.5-1.6-0.8-2.6-0.8
	c-0.5,0-1,0.1-1.5,0.2c-0.5,0.2-0.9,0.4-1.3,0.7c-0.4,0.3-0.8,0.8-1.2,1.5V82h-2v16.9h2V92z M411.9,91.2c-0.6,0.9-1.5,1.4-2.5,1.4
	c-0.6,0-1.2-0.2-1.8-0.5c-0.6-0.4-1-0.9-1.2-1.6c-0.3-0.7-0.4-1.5-0.4-2.4c0-1.5,0.3-2.6,1-3.4c0.7-0.8,1.5-1.2,2.5-1.2
	c0.9,0,1.7,0.4,2.4,1.2c0.7,0.8,1,1.9,1,3.2C412.9,89.1,412.6,90.3,411.9,91.2 M412.9,93c0,1.5-0.2,2.5-0.5,3.1
	c-0.3,0.6-0.7,1-1.3,1.2c-0.5,0.3-1.1,0.4-1.9,0.4c-0.9,0-1.6-0.2-2.2-0.5c-0.6-0.3-0.9-0.7-0.9-1.3v-0.2h-2v0.2
	c0,0.6,0.2,1.1,0.6,1.6c0.4,0.5,1,0.9,1.8,1.2c0.8,0.3,1.7,0.4,2.7,0.4c1.1,0,2-0.2,2.8-0.6c0.8-0.4,1.5-1,2-1.8
	c0.5-0.8,0.8-2.5,0.8-5V82h-2v2c-0.6-0.9-1.2-1.5-1.8-1.8s-1.3-0.5-2-0.5c-1,0-1.9,0.2-2.7,0.7c-0.8,0.5-1.4,1.2-1.8,2.2
	c-0.4,1-0.6,2.1-0.6,3.4c0,1.9,0.5,3.4,1.4,4.5c0.9,1.1,2.1,1.7,3.6,1.7c0.9,0,1.7-0.2,2.4-0.6c0.7-0.4,1.2-1.1,1.6-1.9V93z
	 M393.5,88.2c0-1.2,0.2-2.1,0.5-2.7c0.3-0.6,0.8-1.1,1.3-1.5c0.5-0.3,1.1-0.5,1.7-0.5c0.5,0,1,0.1,1.4,0.4c0.4,0.3,0.7,0.6,0.9,1.1
	c0.1,0.5,0.2,1.2,0.2,2.3v6.9h2v-7.8c0-1.3-0.2-2.3-0.5-2.9c-0.3-0.6-0.8-1.1-1.4-1.4c-0.6-0.3-1.3-0.5-2.1-0.5
	c-0.5,0-1,0.1-1.5,0.2c-0.4,0.2-0.9,0.4-1.3,0.7c-0.4,0.3-0.8,0.8-1.3,1.5V82h-2v12.2h2V88.2z M388.2,77.2h-2v2h2V77.2z M386.2,94.1
	h2V82h-2V94.1z M380,91.2c-0.6,0.9-1.5,1.4-2.5,1.4c-0.6,0-1.2-0.2-1.8-0.5c-0.6-0.4-1-0.9-1.2-1.6c-0.3-0.7-0.4-1.5-0.4-2.4
	c0-1.5,0.3-2.6,1-3.4c0.7-0.8,1.5-1.2,2.5-1.2c0.9,0,1.7,0.4,2.4,1.2c0.7,0.8,1,1.9,1,3.2C381,89.1,380.6,90.3,380,91.2 M381,93
	c0,1.5-0.2,2.5-0.5,3.1c-0.3,0.6-0.7,1-1.3,1.2c-0.5,0.3-1.1,0.4-1.9,0.4c-0.9,0-1.6-0.2-2.2-0.5s-0.9-0.7-0.9-1.3v-0.2h-2v0.2
	c0,0.6,0.2,1.1,0.6,1.6c0.4,0.5,1,0.9,1.8,1.2c0.8,0.3,1.7,0.4,2.7,0.4c1.1,0,2-0.2,2.8-0.6c0.8-0.4,1.5-1,2-1.8
	c0.5-0.8,0.8-2.5,0.8-5V82h-2v2c-0.6-0.9-1.2-1.5-1.8-1.8c-0.6-0.3-1.3-0.5-2-0.5c-1,0-1.9,0.2-2.7,0.7c-0.8,0.5-1.4,1.2-1.8,2.2
	c-0.4,1-0.6,2.1-0.6,3.4c0,1.9,0.5,3.4,1.4,4.5c0.9,1.1,2.1,1.7,3.6,1.7c0.9,0,1.7-0.2,2.4-0.6c0.7-0.4,1.2-1.1,1.6-1.9V93z
	 M367.1,90.6c-0.3,0.8-0.7,1.3-1.2,1.7c-0.6,0.4-1.2,0.6-1.8,0.6c-1,0-1.8-0.4-2.5-1.1c-0.6-0.7-0.9-2-0.9-3.8c0-1.6,0.3-2.7,1-3.5
	c0.7-0.8,1.5-1.2,2.5-1.2c1.1,0,1.9,0.4,2.5,1.3c0.6,0.9,0.9,2,0.9,3.4C367.5,89,367.4,89.8,367.1,90.6 M367.5,84.1
	c-0.4-0.7-0.8-1.3-1.2-1.6c-0.4-0.3-0.8-0.5-1.2-0.7c-0.5-0.1-0.9-0.2-1.5-0.2c-1.6,0-2.8,0.6-3.7,1.8c-0.9,1.2-1.3,2.8-1.3,4.6
	c0,1.3,0.2,2.4,0.6,3.4c0.4,1,1,1.8,1.8,2.3c0.8,0.5,1.6,0.8,2.5,0.8c0.5,0,1-0.1,1.5-0.2c0.5-0.1,0.9-0.3,1.3-0.6
	c0.4-0.3,0.8-0.9,1.2-1.6v2.1h2V76.5h-2V84.1z M355.9,77.2h-2v2h2V77.2z M353.8,94.1h2V82h-2V94.1z M347.2,88.1
	c0-1.7,0.4-2.9,1.1-3.6c0.7-0.7,1.5-1,2.2-1c0.5,0,1,0.1,1.5,0.4v-2.1c-0.3-0.1-0.7-0.2-1.1-0.2c-0.5,0-0.9,0.1-1.4,0.3
	c-0.5,0.2-0.9,0.4-1.3,0.8c-0.4,0.3-0.8,0.8-1.1,1.4V82h-2v12.2h2V88.1z M334,85.5c0.3-0.8,0.7-1.3,1.2-1.7c0.6-0.4,1.2-0.6,1.8-0.6
	c0.9,0,1.7,0.4,2.4,1.1c0.7,0.7,1,2,1,3.8c0,1.6-0.3,2.7-1,3.5c-0.7,0.8-1.5,1.2-2.5,1.2c-1.1,0-1.9-0.4-2.5-1.3
	c-0.6-0.9-0.9-2-0.9-3.4C333.6,87.2,333.8,86.3,334,85.5 M333.6,92.9l0.1-0.9c0.4,0.7,0.8,1.3,1.2,1.6c0.4,0.3,0.8,0.5,1.2,0.7
	c0.5,0.2,1,0.2,1.5,0.2c1.6,0,2.8-0.6,3.7-1.8c0.9-1.2,1.3-2.8,1.3-4.6c0-1.2-0.2-2.4-0.6-3.4c-0.4-1-1-1.8-1.8-2.3
	s-1.6-0.8-2.5-0.8c-0.5,0-1,0.1-1.5,0.2c-0.5,0.2-0.9,0.4-1.3,0.7c-0.4,0.3-0.8,0.8-1.2,1.5v-7.6h-2v14c0,0.1,0,0.4,0,0.7
	c0,0.4,0,0.8-0.1,1.4c0,0.6-0.1,1.1-0.1,1.5h2C333.5,93.8,333.5,93.4,333.6,92.9"/>
<path class="st1" d="M578.4,49.7c2.4,2.8,4.9,4.9,7.7,6.2c2.8,1.3,6.2,2,10.2,2h14.5V0H597v44.4h-0.7c-1.5,0-3-0.4-4.5-1.3
	c-1.4-0.9-2.7-1.9-3.7-3l-28-32.2c-2.4-2.7-4.9-4.7-7.6-5.9c-2.6-1.3-5.9-1.9-9.7-1.9h-14.5v57.8h13.7V13.4h0.7c1.5,0,3,0.4,4.5,1.3
	c1.5,0.8,2.7,1.9,3.7,3.1L578.4,49.7z M457.8,44.4c-2.2,0-3.3-1-3.3-2.9v-5.9H521V22.1h-66.4v-5.9c0-1.9,1.1-2.8,3.3-2.8h63.6V0
	h-63.6c-11.6,0-17.4,4.7-17.4,14.1v29.6c0,9.4,5.8,14.2,17.4,14.2h63.8V44.4H457.8z M330.2,57.8h13.4V13.4h0.7c1,0,1.9,0.3,2.8,1
	c0.9,0.7,1.6,1.5,2,2.3l21.3,41H393l21.2-41c0.4-0.9,1.1-1.6,2-2.3c0.9-0.7,1.8-1,2.8-1h0.7v44.4h13.4V0h-14.2
	c-2.1,0-4.1,0.2-5.8,0.6c-1.8,0.4-3.4,1.1-4.8,2c-1.5,0.9-2.8,2-4,3.5c-1.2,1.4-2.3,3.2-3.4,5.2l-16.8,33.1h-4.6l-16.9-33.3
	c-1-2-2.1-3.7-3.3-5.1c-1.2-1.4-2.5-2.5-3.9-3.4c-1.4-0.9-3.1-1.5-4.9-1.9c-1.8-0.4-3.9-0.6-6.2-0.6h-14.1V57.8z M301.2,13.4
	c5.1,0,7.6,1.7,7.6,5v21c0,3.3-2.5,4.9-7.6,4.9h-44.7c-5.1,0-7.6-1.6-7.6-4.9v-21c0-3.3,2.5-5,7.6-5H301.2z M301.2,57.8
	c14.5,0,21.8-6.1,21.8-18.4v-21c0-12.3-7.3-18.4-21.8-18.4h-44.7c-14.5,0-21.8,6.1-21.8,18.4v21c0,12.2,7.3,18.4,21.8,18.4H301.2z
	 M145.8,41.6c-0.7,1.8-1.7,2.7-2.9,2.7h-2.1c-1.4,0-2.3-0.9-2.7-2.8L129.8,0h-15.5l12,50.8c0.5,2.2,1.6,3.9,3.2,5.2
	c1.6,1.2,3.5,1.8,5.5,1.8h11.1c2.5,0,4.6-0.7,6.5-2c1.9-1.3,3.3-3,4.1-5l14.7-37.4h4.7l14.7,37.4c0.8,2,2.2,3.7,4.1,5
	c1.9,1.3,4.1,2,6.5,2h11.1c0.8,0,1.7-0.2,2.6-0.5c0.9-0.3,1.8-0.8,2.6-1.4c0.8-0.6,1.5-1.3,2.2-2.2c0.6-0.9,1.1-1.9,1.4-3l12-50.8
	h-15.5l-8.3,41.6c-0.4,1.9-1.3,2.8-2.7,2.8h-2.1c-1.3,0-2.2-0.9-2.9-2.7L186,0h-24.4L145.8,41.6z M96.6,57.8h14.2V0H96.6V57.8z
	 M14.2,13.4h53.4c5.1,0,7.6,1.7,7.6,5v21c0,3.3-2.5,4.9-7.6,4.9H14.2V13.4z M0,57.8h67.6c14.5,0,21.8-6.1,21.8-18.4v-21
	C89.4,6.1,82.1,0,67.6,0H0V57.8z"/>
</svg>
